/vscmnt/brussel_pixiu_data/_data_brussel/112/vsc11236/PredSimResults/SUBJ04_gait1422_tracking/SUBJ04_gait1422_11433261.mot
version=1
nRows=4
nColumns=50
inDegrees=yes
endheader
                time	         pelvis_tilt	         pelvis_list	     pelvis_rotation	           pelvis_tx	           pelvis_ty	           pelvis_tz	       hip_flexion_r	     hip_adduction_r	      hip_rotation_r	        knee_angle_r	       ankle_angle_r	         mtp_angle_r	       hip_flexion_l	     hip_adduction_l	      hip_rotation_l	        knee_angle_l	       ankle_angle_l	         mtp_angle_l	    lumbar_extension	      lumbar_bending	     lumbar_rotation	 ercspn_r/activation	 intobl_r/activation	 extobl_r/activation	    abd_r/activation	    add_r/activation	hamstrings_r/activation	bifemsh_r/activation	glut_max_r/activation	iliopsoas_r/activation	rect_fem_r/activation	  vasti_r/activation	gastroc_r/activation	 soleus_r/activation	tib_ant_r/activation	 ercspn_l/activation	 intobl_l/activation	 extobl_l/activation	    abd_l/activation	    add_l/activation	hamstrings_l/activation	bifemsh_l/activation	glut_max_l/activation	iliopsoas_l/activation	rect_fem_l/activation	  vasti_l/activation	gastroc_l/activation	 soleus_l/activation	tib_ant_l/activation	
          1.28030521	         -0.98894284	          1.60306460	          5.29827885	          1.20348690	          0.87686517	         -0.07954126	         31.63787053	         -5.54896259	        -19.70178676	        -18.25698782	          4.37897414	          0.23117688	        -12.61463315	          3.34145715	        -12.14503936	        -10.83002381	         16.03490123	         20.09345856	         -7.30388737	         -0.86776770	        -12.24256345	          0.06995302	          0.05364618	          0.06089734	          0.02592063	          0.08018365	          0.02569556	          0.12326209	          0.09962626	          0.09898952	          0.01001838	          0.01472387	          0.01000115	          0.01000057	          0.16570707	          0.11431158	          0.01000632	          0.01563550	          0.13630266	          0.01000100	          0.01000089	          0.08172747	          0.01000182	          0.22518851	          0.15886880	          0.01259163	          0.43776360	          0.37371885	          0.03845166	
          1.29310826	         -1.01798178	          1.41275698	          5.74446658	          1.21830604	          0.87577150	         -0.07847832	         31.17650678	         -5.25043851	        -18.91384435	        -18.90966067	          3.21201502	          0.19174507	        -13.16451986	          2.73722784	        -11.83707072	        -11.48466309	         15.35666789	         21.88390264	         -7.11085884	         -0.51510508	        -12.32293369	          0.05765138	          0.04421445	          0.05018871	          0.02136242	          0.07177626	          0.02117703	          0.14338001	          0.08210651	          0.12566680	          0.01000058	          0.01213486	          0.01213453	          0.01213462	          0.20842211	          0.09420914	          0.01000161	          0.01288730	          0.13310332	          0.01000084	          0.01013969	          0.08268081	          0.01009055	          0.18558781	          0.13093050	          0.01038021	          0.42769404	          0.38619215	          0.03168962	
          1.30591131	         -1.03160740	          1.29026478	          6.20509195	          1.23385254	          0.87498477	         -0.07713353	         30.43610045	         -4.92622836	        -18.19563022	        -19.36513139	          2.87450438	          0.16581591	        -13.71870614	          2.15346947	        -11.51350069	        -12.19564964	         14.40626281	         23.83450828	         -6.83968430	         -0.28515032	        -12.40751940	          0.04751307	          0.19511467	          0.13961040	          0.01760570	          0.05915395	          0.01745293	          0.11874451	          0.06766744	          0.30988018	          0.25851813	          0.01000152	          0.01000075	          0.01000074	          0.24764157	          0.07764187	          0.01278196	          0.13960293	          0.11348013	          0.01000116	          0.01000406	          0.08549737	          0.01000100	          0.15295109	          0.10790536	          0.01000131	          0.40204905	          0.36597963	          0.02611674	
          1.31871437	         -1.03106459	          1.08896616	          6.61586694	          1.24955762	          0.87451648	         -0.07552982	         29.80313054	         -4.52072845	        -17.53279221	        -20.05399642	          2.61237052	          0.17839395	        -14.17051802	          1.45441467	        -11.24793250	        -13.09247436	         13.34277736	         25.84363673	         -6.57107580	          0.02170170	        -12.45182829	          0.03915764	          0.22424188	          0.12656748	          0.01450969	          0.04875137	          0.01438377	          0.09786469	          0.05576767	          0.31081053	          0.21305706	          0.04425814	          0.01473028	          0.01012986	          0.21571230	          0.06398799	          0.01341409	          0.11505447	          0.09352468	          0.01000085	          0.03509040	          0.07276180	          0.02167900	          0.12605388	          0.08892936	          0.01170730	          0.36656693	          0.32541000	          0.02152392	
